<svg width="48" height="20" viewBox="0 0 48 20" fill="none" xmlns="http://www.w3.org/2000/svg">
<path d="M31.7783 2.48535C41.2153 3.69711 48 7.05039 48 11C48 15.9706 37.2548 20 24 20C10.7452 20 0 15.9706 0 11C0 7.05052 6.78419 3.69722 16.2207 2.48535C15.5566 3.11794 15.1377 3.8386 15.0303 4.6084C7.35121 5.70076 2 8.15054 2 11C2 14.866 11.8497 18 24 18C36.1503 18 46 14.866 46 11C46 8.15042 40.6483 5.70069 32.9688 4.6084C32.8612 3.83845 32.4427 3.11802 31.7783 2.48535Z" fill="black"/>
<path d="M24 0C28.9706 0 33 2.23858 33 5C33 7.76142 28.9706 10 24 10C19.0294 10 15 7.76142 15 5C15 2.23858 19.0294 0 24 0ZM24 2C20.134 2 17 3.34315 17 5C17 6.65685 20.134 8 24 8C27.866 8 31 6.65685 31 5C31 3.34315 27.866 2 24 2Z" fill="black"/>
<path d="M26 3C26 3.55228 25.1046 4 24 4C22.8954 4 22 3.55228 22 3C22 2.44772 22.8954 2 24 2C25.1046 2 26 2.44772 26 3Z" fill="#D9D9D9"/>
<path d="M32.9648 3.1582C37.1085 3.79044 40.6452 4.84267 43.1992 6.16016C46.047 7.62925 47.5 9.32888 47.5 11C47.5 12.0483 46.9352 13.1067 45.7822 14.1289C44.6298 15.1506 42.9337 16.0935 40.7949 16.8955C36.5211 18.4982 30.5833 19.5 24 19.5C17.4167 19.5 11.4789 18.4982 7.20508 16.8955C5.06632 16.0935 3.37017 15.1506 2.21777 14.1289C1.06483 13.1067 0.5 12.0483 0.5 11C0.5 9.32888 1.95302 7.62928 4.80078 6.16016C7.35459 4.84268 10.8908 3.79048 15.0342 3.1582C14.8416 3.47786 14.6962 3.81409 14.6064 4.16602C10.8905 4.71976 7.70734 5.59369 5.41895 6.69434C4.23953 7.26163 3.2734 7.9007 2.5957 8.60645C1.91579 9.31455 1.5 10.1196 1.5 11C1.5 12.1956 2.26145 13.2459 3.42871 14.124C4.60445 15.0084 6.27383 15.7836 8.29199 16.4258C12.3344 17.712 17.888 18.5 24 18.5C30.112 18.5 35.6656 17.712 39.708 16.4258C41.7262 15.7836 43.3956 15.0084 44.5713 14.124C45.7385 13.2459 46.5 12.1956 46.5 11C46.5 10.1196 46.0843 9.31456 45.4043 8.60645C44.7265 7.90065 43.7606 7.26165 42.5811 6.69434C40.2925 5.59363 37.1089 4.71974 33.3926 4.16602C33.3028 3.81402 33.1575 3.47792 32.9648 3.1582ZM24 0.5C26.4166 0.5 28.5798 1.04512 30.1211 1.90137C30.5999 2.16735 31.0086 2.45765 31.3457 2.76367L31.4336 2.84766C32.0381 3.42336 32.3855 4.04642 32.4736 4.67773L32.4902 4.7998C32.4961 4.86653 32.5 4.93322 32.5 5C32.5 6.11668 31.6793 7.23294 30.1211 8.09863C28.5798 8.95488 26.4166 9.5 24 9.5C21.5834 9.5 19.4202 8.95488 17.8789 8.09863C16.3207 7.23294 15.5 6.11668 15.5 5C15.5 4.90382 15.5084 4.80793 15.5205 4.71191L15.5254 4.67773C15.5931 4.19274 15.8146 3.71258 16.1875 3.25488C16.2343 3.1974 16.2825 3.13964 16.334 3.08301C16.3445 3.07147 16.3555 3.06033 16.3662 3.04883L16.5654 2.84766L16.6162 2.79883C16.9604 2.47987 17.3819 2.17748 17.8789 1.90137C19.4202 1.04512 21.5834 0.5 24 0.5ZM24 1.5C22.016 1.5 20.1961 1.84359 18.8535 2.41895C18.1831 2.70627 17.6085 3.06181 17.1943 3.48145C16.7781 3.90321 16.5 4.41677 16.5 5C16.5 5.58323 16.7781 6.09679 17.1943 6.51855C17.6085 6.93819 18.1831 7.29373 18.8535 7.58105C20.1961 8.15641 22.016 8.5 24 8.5C25.984 8.5 27.8039 8.15641 29.1465 7.58105C29.8169 7.29373 30.3915 6.93819 30.8057 6.51855C31.2219 6.09679 31.5 5.58323 31.5 5C31.5 4.41677 31.2219 3.90321 30.8057 3.48145C30.3915 3.06181 29.8169 2.70627 29.1465 2.41895C27.8039 1.84359 25.984 1.5 24 1.5ZM24 2.5C24.4914 2.5 24.9116 2.60082 25.1904 2.74023C25.3296 2.80983 25.4153 2.8797 25.4609 2.93359C25.4828 2.95939 25.493 2.97841 25.4971 2.98828C25.4988 2.9927 25.4997 2.9956 25.5 2.99707V3.00293C25.4997 3.0044 25.4988 3.0073 25.4971 3.01172C25.493 3.02159 25.4828 3.04061 25.4609 3.06641C25.4153 3.1203 25.3296 3.19017 25.1904 3.25977C24.9116 3.39918 24.4914 3.5 24 3.5C23.5086 3.5 23.0884 3.39918 22.8096 3.25977C22.6704 3.19017 22.5847 3.1203 22.5391 3.06641C22.5172 3.04061 22.507 3.02159 22.5029 3.01172C22.5012 3.0073 22.5003 3.0044 22.5 3.00293V2.99707C22.5003 2.9956 22.5012 2.9927 22.5029 2.98828C22.507 2.97841 22.5172 2.95939 22.5391 2.93359C22.5847 2.8797 22.6704 2.80983 22.8096 2.74023C23.0884 2.60082 23.5086 2.5 24 2.5Z" stroke="black"/>
<path d="M32.9648 3.1582C37.1085 3.79044 40.6452 4.84267 43.1992 6.16016C46.047 7.62925 47.5 9.32888 47.5 11C47.5 12.0483 46.9352 13.1067 45.7822 14.1289C44.6298 15.1506 42.9337 16.0935 40.7949 16.8955C36.5211 18.4982 30.5833 19.5 24 19.5C17.4167 19.5 11.4789 18.4982 7.20508 16.8955C5.06632 16.0935 3.37017 15.1506 2.21777 14.1289C1.06483 13.1067 0.5 12.0483 0.5 11C0.5 9.32888 1.95302 7.62928 4.80078 6.16016C7.35459 4.84268 10.8908 3.79048 15.0342 3.1582C14.8416 3.47786 14.6962 3.81409 14.6064 4.16602C10.8905 4.71976 7.70734 5.59369 5.41895 6.69434C4.23953 7.26163 3.2734 7.9007 2.5957 8.60645C1.91579 9.31455 1.5 10.1196 1.5 11C1.5 12.1956 2.26145 13.2459 3.42871 14.124C4.60445 15.0084 6.27383 15.7836 8.29199 16.4258C12.3344 17.712 17.888 18.5 24 18.5C30.112 18.5 35.6656 17.712 39.708 16.4258C41.7262 15.7836 43.3956 15.0084 44.5713 14.124C45.7385 13.2459 46.5 12.1956 46.5 11C46.5 10.1196 46.0843 9.31456 45.4043 8.60645C44.7265 7.90065 43.7606 7.26165 42.5811 6.69434C40.2925 5.59363 37.1089 4.71974 33.3926 4.16602C33.3028 3.81402 33.1575 3.47792 32.9648 3.1582ZM24 0.5C26.4166 0.5 28.5798 1.04512 30.1211 1.90137C30.5999 2.16735 31.0086 2.45765 31.3457 2.76367L31.4336 2.84766C32.0381 3.42336 32.3855 4.04642 32.4736 4.67773L32.4902 4.7998C32.4961 4.86653 32.5 4.93322 32.5 5C32.5 6.11668 31.6793 7.23294 30.1211 8.09863C28.5798 8.95488 26.4166 9.5 24 9.5C21.5834 9.5 19.4202 8.95488 17.8789 8.09863C16.3207 7.23294 15.5 6.11668 15.5 5C15.5 4.90382 15.5084 4.80793 15.5205 4.71191L15.5254 4.67773C15.5931 4.19274 15.8146 3.71258 16.1875 3.25488C16.2343 3.1974 16.2825 3.13964 16.334 3.08301C16.3445 3.07147 16.3555 3.06033 16.3662 3.04883L16.5654 2.84766L16.6162 2.79883C16.9604 2.47987 17.3819 2.17748 17.8789 1.90137C19.4202 1.04512 21.5834 0.5 24 0.5ZM24 1.5C22.016 1.5 20.1961 1.84359 18.8535 2.41895C18.1831 2.70627 17.6085 3.06181 17.1943 3.48145C16.7781 3.90321 16.5 4.41677 16.5 5C16.5 5.58323 16.7781 6.09679 17.1943 6.51855C17.6085 6.93819 18.1831 7.29373 18.8535 7.58105C20.1961 8.15641 22.016 8.5 24 8.5C25.984 8.5 27.8039 8.15641 29.1465 7.58105C29.8169 7.29373 30.3915 6.93819 30.8057 6.51855C31.2219 6.09679 31.5 5.58323 31.5 5C31.5 4.41677 31.2219 3.90321 30.8057 3.48145C30.3915 3.06181 29.8169 2.70627 29.1465 2.41895C27.8039 1.84359 25.984 1.5 24 1.5ZM24 2.5C24.4914 2.5 24.9116 2.60082 25.1904 2.74023C25.3296 2.80983 25.4153 2.8797 25.4609 2.93359C25.4828 2.95939 25.493 2.97841 25.4971 2.98828C25.4988 2.9927 25.4997 2.9956 25.5 2.99707V3.00293C25.4997 3.0044 25.4988 3.0073 25.4971 3.01172C25.493 3.02159 25.4828 3.04061 25.4609 3.06641C25.4153 3.1203 25.3296 3.19017 25.1904 3.25977C24.9116 3.39918 24.4914 3.5 24 3.5C23.5086 3.5 23.0884 3.39918 22.8096 3.25977C22.6704 3.19017 22.5847 3.1203 22.5391 3.06641C22.5172 3.04061 22.507 3.02159 22.5029 3.01172C22.5012 3.0073 22.5003 3.0044 22.5 3.00293V2.99707C22.5003 2.9956 22.5012 2.9927 22.5029 2.98828C22.507 2.97841 22.5172 2.95939 22.5391 2.93359C22.5847 2.8797 22.6704 2.80983 22.8096 2.74023C23.0884 2.60082 23.5086 2.5 24 2.5Z" stroke="black" stroke-opacity="0.2"/>
</svg>
