<svg width="40" height="26" viewBox="0 0 40 26" fill="none" xmlns="http://www.w3.org/2000/svg">
<path fill-rule="evenodd" clip-rule="evenodd" d="M20 0C23.4473 0 26.4404 1.07806 27.9521 2.65918C35.0411 3.88931 40 6.71213 40 10C40 11.4572 39.026 12.8233 37.3242 14C39.026 15.1767 40 16.5428 40 18C40 22.4183 31.0457 26 20 26C8.9543 26 0 22.4183 0 18C0 16.543 0.973455 15.1766 2.6748 14C2.68466 14.0068 2.69517 14.0127 2.70508 14.0195C0.985396 12.8383 0 11.4654 0 10C0 6.71228 4.95838 3.8894 12.0469 2.65918C13.5584 1.07779 16.5524 0 20 0ZM35.5957 15.0049C31.93 16.8292 26.3067 18 20 18C13.6924 18 8.06799 16.8296 4.40234 15.0049C2.87478 15.8866 2 16.9087 2 18C2 21.3137 10.0589 24 20 24C29.9411 24 38 21.3137 38 18C38 16.9083 37.1242 15.8868 35.5957 15.0049ZM11.0039 4.89648C9.35983 5.248 7.87675 5.68973 6.60059 6.2002C4.93068 6.86817 3.71343 7.61349 2.94629 8.33887C2.18337 9.06036 2 9.62256 2 10C2 10.3774 2.18337 10.9396 2.94629 11.6611C3.71343 12.3865 4.93068 13.1318 6.60059 13.7998C9.92988 15.1315 14.6665 16 20 16C25.3335 16 30.0701 15.1315 33.3994 13.7998C35.0693 13.1318 36.2866 12.3865 37.0537 11.6611C37.8166 10.9396 38 10.3774 38 10C38 9.62256 37.8166 9.06036 37.0537 8.33887C36.2866 7.61349 35.0693 6.86817 33.3994 6.2002C32.123 5.68963 30.6396 5.24803 28.9951 4.89648C28.9964 4.93094 29 4.96537 29 5C29 7.76142 24.9706 10 20 10C15.0294 10 11 7.76142 11 5C11 4.94833 11.004 4.89699 11.0068 4.8457C11.0059 4.86262 11.0045 4.87952 11.0039 4.89648ZM20 2C21.1046 2 22 2.44772 22 3C22 3.55228 21.1046 4 20 4C18.8954 4 18 3.55228 18 3C18 2.44772 18.8954 2 20 2C16.134 2 13 3.34315 13 5C13 6.65685 16.134 8 20 8C23.866 8 27 6.65685 27 5C27 3.34315 23.866 2 20 2Z" fill="black"/>
</svg>
