<svg width="40" height="23" viewBox="0 0 40 23" fill="none" xmlns="http://www.w3.org/2000/svg">
<path fill-rule="evenodd" clip-rule="evenodd" d="M20 0C23.4473 0 26.4404 1.07806 27.9521 2.65918C35.0411 3.88931 40 6.71213 40 10C40 10.8734 39.6488 11.7132 39.002 12.5C39.6488 13.2868 40 14.1266 40 15C40 19.4183 31.0457 23 20 23C8.9543 23 0 19.4183 0 15C0 14.1269 0.349742 13.2866 0.996094 12.5C0.349742 11.7134 0 10.8731 0 10C0 6.71228 4.95838 3.8894 12.0469 2.65918C13.5584 1.07779 16.5524 0 20 0ZM37.6279 13.7803C34.2542 16.2914 27.626 18 20 18C12.373 18 5.74346 16.2919 2.37012 13.7803C2.1265 14.1738 2 14.5824 2 15C2 18.3137 10.0589 21 20 21C29.9411 21 38 18.3137 38 15C38 14.5821 37.8719 14.1741 37.6279 13.7803ZM29 5C29 7.76142 24.9706 10 20 10C15.0294 10 11 7.76142 11 5C11 4.93392 11.0032 4.8682 11.0078 4.80273C5.62345 5.8398 2 7.77812 2 10C2 13.3137 10.0589 16 20 16C29.9411 16 38 13.3137 38 10C38 7.77786 34.3756 5.83972 28.9902 4.80273C28.9948 4.86824 29 4.93387 29 5ZM20 2C21.1046 2 22 2.44772 22 3C22 3.55228 21.1046 4 20 4C18.8954 4 18 3.55228 18 3C18 2.44772 18.8954 2 20 2C17.7892 2 15.8866 2.50225 14.6074 3.21289C13.2605 3.96118 13 4.67543 13 5C13 5.32457 13.2605 6.03882 14.6074 6.78711C15.8866 7.49775 17.7892 8 20 8C22.2108 8 24.1134 7.49775 25.3926 6.78711C26.7395 6.03882 27 5.32457 27 5C27 4.67543 26.7395 3.96118 25.3926 3.21289C24.1134 2.50225 22.2108 2 20 2Z" fill="black"/>
</svg>
