<svg width="36" height="37" viewBox="0 0 36 37" fill="none" xmlns="http://www.w3.org/2000/svg">
<path d="M18 11C20.2091 11 22 12.7909 22 15C22 16.8638 20.7252 18.43 19 18.874V26H17V18.874C15.2748 18.43 14 16.8638 14 15C14 12.7909 15.7909 11 18 11Z" fill="black"/>
<path fill-rule="evenodd" clip-rule="evenodd" d="M24 37H12V25H24V37ZM14 27V35H22V27H14Z" fill="black"/>
<path fill-rule="evenodd" clip-rule="evenodd" d="M18 0C27.9411 0 36 8.05887 36 18C36 27.9411 27.9411 36 18 36C8.05887 36 0 27.9411 0 18C0 8.05887 8.05887 0 18 0ZM18 2C9.16344 2 2 9.16344 2 18C2 25.4553 7.09919 31.7189 14 33.4951V35H22V33.4951C28.9008 31.7189 34 25.4553 34 18C34 9.16344 26.8366 2 18 2Z" fill="black"/>
</svg>
