<svg width="40" height="30" viewBox="0 0 40 30" fill="none" xmlns="http://www.w3.org/2000/svg">
<path d="M20 0C31.0457 0 40 3.58172 40 8V22C40 26.4183 31.0457 30 20 30C8.9543 30 0 26.4183 0 22V8C0 3.58172 8.9543 0 20 0ZM8 17.6035C8.60617 18.1509 9 19.0195 9 20C9 20.9802 8.60589 21.8481 8 22.3955V26.3037C8.12414 26.3428 8.24893 26.3839 8.37598 26.4219C11.2854 27.3208 14.95 27.905 19 27.9883V24.8252C17.8355 24.413 17 23.3057 17 22C17 20.6941 17.8353 19.5859 19 19.1738V15.9893C14.8832 15.9082 11.0937 15.3299 8 14.4004V17.6035ZM32 14.4004C28.9063 15.3299 25.1168 15.9082 21 15.9893V19.1738C22.1647 19.5859 23 20.6941 23 22C23 23.3057 22.1645 24.413 21 24.8252V27.9883C25.0496 27.9049 28.7138 27.3206 31.623 26.4219C31.7504 26.3838 31.8756 26.3428 32 26.3037V22.3955C31.3941 21.8481 31 20.9802 31 20C31 19.0195 31.3938 18.1509 32 17.6035V14.4004ZM2 22C2 23.2696 3.52368 24.5355 6 25.5771V22.9395C4.85894 22.6614 4 21.4513 4 20C4 18.5486 4.85883 17.3375 6 17.0596V13.7109C4.36835 13.0711 3.00942 12.3215 2 11.4902V22ZM38 11.4902C36.9906 12.3215 35.6317 13.0711 34 13.7109V17.0596C35.1412 17.3375 36 18.5486 36 20C36 21.4513 35.1411 22.6614 34 22.9395V25.5762C36.4761 24.5346 38 23.2695 38 22V11.4902ZM20 2C10.0589 2 2 4.68629 2 8C2 11.3137 10.0589 14 20 14C29.9411 14 38 11.3137 38 8C38 4.68629 29.9411 2 20 2Z" fill="black"/>
</svg>
